<?xml version="1.0" encoding="iso-8859-1"?>
<!-- Generator: Adobe Illustrator 19.0.0, SVG Export Plug-In . SVG Version: 6.00 Build 0)  -->
<svg version="1.1" id="Layer_1" xmlns="http://www.w3.org/2000/svg" xmlns:xlink="http://www.w3.org/1999/xlink" x="0px" y="0px"
	 viewBox="0 0 296.999 296.999" style="enable-background:new 0 0 296.999 296.999;" xml:space="preserve">
<g>
	<path style="fill:#602904;" d="M292.325,90.19c-8.366-46.966-24.879-83.798-25.578-85.344c-1.259-2.783-3.988-4.607-7.04-4.706
		c-1.32-0.041-9.869-0.275-22.533,0.207c-39.55,1.506-119.346,10.02-145.296,53.392c-1.249,2.088-1.482,4.631-0.633,6.911
		c0.874,2.343,20.481,53.811,72.987,100.774c-17.85,4.427-43.638,14.48-78.708,45.703l14.635,53.43
		c1.071,0.435,20.294,9.909,52.098,13.347c1.582,0.171,3.176,0.331,4.793,0.469c5.522,0.47,10.913,0.704,16.175,0.704
		c38.767,0,70.265-12.705,91.732-37.18c16.423-18.726,26.653-42.851,30.404-71.707C298.302,143.577,297.28,118.007,292.325,90.19z"
		/>
	<path style="fill:#7F3705;" d="M100.16,260.557c1.07,0.435,20.294,9.909,52.098,13.347L237.175,0.347
		c-39.551,1.506-119.347,10.02-145.297,53.392c-1.249,2.088-1.482,4.631-0.633,6.911c0.873,2.343,20.481,53.811,72.987,100.774
		c-17.85,4.427-43.638,14.48-78.708,45.703L100.16,260.557z"/>
	<path style="fill:#602904;" d="M292.326,90.19c-8.366-46.966-24.879-83.798-25.578-85.344c-1.259-2.783-3.988-4.607-7.04-4.706
		c-1.32-0.041-9.869-0.275-22.533,0.207l-84.917,273.557c1.582,0.171,3.176,0.331,4.793,0.469c5.522,0.47,10.913,0.704,16.175,0.704
		c38.767,0,70.265-12.705,91.732-37.18c16.423-18.726,26.653-42.851,30.404-71.707C298.302,143.577,297.28,118.007,292.326,90.19z"
		/>
	<path style="fill:#AEBAAE;" d="M85.525,207.127l-34.364,9.415c-6.328-10.066-18.73-15.281-30.777-11.982
		c-14.73,4.035-23.432,19.303-19.396,34.033c2.031,7.415,6.907,13.302,13.13,16.807c-0.026,0.045-0.052,0.09-0.077,0.135
		c-3.664,6.429-4.605,13.898-2.65,21.035c3.368,12.291,14.553,20.383,26.723,20.382c2.415,0,4.871-0.319,7.31-0.987
		c12.046-3.3,20.06-14.108,20.374-25.993l34.363-9.414L85.525,207.127z"/>
	<g>
		<path style="fill:#420904;" d="M129.34,76.964c0,0,0.378-0.326,1.116-0.899c0.738-0.573,1.814-1.429,3.229-2.445
			c1.404-1.036,3.134-2.256,5.145-3.619c2.029-1.327,4.29-2.889,6.849-4.43c1.277-0.778,2.606-1.588,3.983-2.427
			c1.399-0.8,2.844-1.627,4.331-2.478c2.967-1.718,6.186-3.358,9.502-5.088c1.655-0.872,3.385-1.66,5.117-2.5
			c1.74-0.823,3.482-1.699,5.286-2.476c1.802-0.782,3.619-1.571,5.442-2.363l2.749-1.171l2.787-1.094
			c3.732-1.424,7.444-2.9,11.199-4.085c1.863-0.63,3.716-1.241,5.551-1.831c1.84-0.575,3.682-1.071,5.488-1.573
			c1.807-0.494,3.584-0.98,5.323-1.455c1.749-0.438,3.481-0.799,5.158-1.168c3.363-0.709,6.519-1.45,9.501-1.837
			c2.965-0.454,5.686-0.821,8.092-1.143c2.422-0.247,4.548-0.351,6.287-0.474c1.739-0.126,3.11-0.17,4.04-0.223
			c0.932-0.037,1.429-0.056,1.429-0.056s-0.48,0.138-1.381,0.398c-0.902,0.243-2.219,0.633-3.899,1.06
			c-1.676,0.43-3.71,0.951-6.044,1.55c-2.31,0.697-4.911,1.479-7.751,2.279c-2.854,0.738-5.878,1.811-9.101,2.81
			c-1.605,0.524-3.273,0.989-4.949,1.563c-1.674,0.581-3.384,1.174-5.123,1.778c-1.734,0.617-3.518,1.169-5.297,1.816
			c-1.771,0.672-3.568,1.338-5.383,1.995c-3.64,1.288-7.283,2.749-10.938,4.178l-2.749,1.05l-2.713,1.127
			c-1.812,0.738-3.616,1.473-5.406,2.202c-3.561,1.514-7.066,3.003-10.457,4.445c-3.36,1.516-6.662,2.878-9.732,4.304
			c-1.547,0.69-3.052,1.362-4.509,2.011c-1.45,0.666-2.851,1.309-4.195,1.926c-2.707,1.208-5.156,2.38-7.36,3.368
			c-2.187,1.024-4.094,1.916-5.664,2.651C131.14,76.119,129.34,76.964,129.34,76.964z"/>
	</g>
	<g>
		<path style="fill:#420904;" d="M164.32,98.23c0,0,1.298-1.041,3.698-2.671c1.197-0.82,2.664-1.795,4.378-2.861
			c1.722-1.048,3.65-2.273,5.821-3.474c1.085-0.605,2.215-1.235,3.385-1.887c1.187-0.619,2.414-1.259,3.675-1.917
			c2.52-1.328,5.249-2.574,8.059-3.899c1.409-0.653,2.867-1.259,4.335-1.892c1.473-0.622,2.947-1.294,4.477-1.86
			c3.045-1.173,6.126-2.401,9.277-3.441c1.574-0.524,3.147-1.048,4.715-1.569c1.564-0.533,3.164-0.938,4.729-1.404
			c1.568-0.457,3.128-0.896,4.673-1.316c1.556-0.385,3.096-0.753,4.614-1.096c1.517-0.343,3.01-0.68,4.47-1.01
			c1.476-0.263,2.92-0.521,4.326-0.772c2.815-0.476,5.467-0.943,7.955-1.165c2.478-0.271,4.751-0.471,6.761-0.644
			c2.022-0.108,3.79-0.124,5.24-0.158c1.449-0.041,2.591-0.019,3.365-0.027c0.776,0.009,1.19,0.013,1.19,0.013
			s-0.4,0.115-1.15,0.329c-0.751,0.198-1.848,0.523-3.247,0.867c-1.398,0.356-3.09,0.793-5.032,1.241
			c-1.927,0.551-4.096,1.17-6.464,1.792c-2.376,0.577-4.911,1.382-7.602,2.153c-1.345,0.382-2.727,0.775-4.139,1.176
			c-1.402,0.439-2.834,0.887-4.291,1.343c-1.458,0.443-2.941,0.893-4.441,1.348c-1.487,0.505-2.995,1.002-4.519,1.488
			c-1.52,0.5-3.061,0.972-4.594,1.496c-1.532,0.527-3.069,1.056-4.607,1.586c-3.099,0.986-6.131,2.176-9.167,3.202
			c-3.014,1.097-5.979,2.177-8.849,3.222c-2.846,1.11-5.648,2.075-8.257,3.107c-2.629,0.99-5.116,1.929-7.405,2.82
			C170.471,95.879,164.32,98.23,164.32,98.23z"/>
	</g>
	<g>
		<path style="fill:#420904;" d="M180.845,131.28c0,0,0.939-1.059,2.769-2.724c0.931-0.805,2.033-1.841,3.399-2.879
			c0.677-0.532,1.397-1.099,2.157-1.696c0.782-0.565,1.604-1.16,2.462-1.78c1.725-1.232,3.663-2.457,5.722-3.748
			c2.097-1.213,4.287-2.56,6.659-3.735c1.173-0.615,2.377-1.221,3.598-1.83c1.237-0.571,2.493-1.145,3.767-1.703
			c2.521-1.187,5.188-2.132,7.823-3.158c1.317-0.515,2.667-0.938,4.006-1.371c1.337-0.442,2.681-0.844,4.008-1.26
			c1.318-0.445,2.674-0.729,3.992-1.074c1.323-0.325,2.63-0.646,3.916-0.962c2.576-0.608,5.116-0.983,7.499-1.412
			c2.38-0.45,4.677-0.622,6.778-0.843c2.109-0.18,4.026-0.405,5.751-0.408c1.717-0.056,3.218-0.042,4.449-0.044
			c1.23-0.011,2.2,0.035,2.858,0.043c0.659,0.025,1.01,0.038,1.01,0.038s-0.338,0.106-0.971,0.305
			c-0.635,0.182-1.56,0.484-2.743,0.798c-1.182,0.324-2.61,0.732-4.253,1.129c-0.823,0.19-1.689,0.443-2.598,0.73
			c-0.911,0.263-1.868,0.54-2.867,0.828c-1.995,0.577-4.173,1.087-6.426,1.832c-2.259,0.714-4.665,1.35-7.113,2.144
			c-2.444,0.794-4.97,1.614-7.537,2.447c-1.273,0.446-2.549,0.912-3.843,1.341c-1.292,0.434-2.592,0.864-3.863,1.373
			c-2.561,0.963-5.15,1.858-7.641,2.887c-1.249,0.505-2.498,0.986-3.734,1.457c-1.219,0.511-2.424,1.017-3.609,1.513
			c-2.394,0.949-4.643,2.006-6.828,2.919c-1.088,0.465-2.118,0.973-3.14,1.419c-1.021,0.45-2.006,0.891-2.937,1.34
			c-1.877,0.876-3.614,1.664-5.131,2.41c-1.525,0.744-2.854,1.393-3.949,1.927C182.096,130.646,180.845,131.28,180.845,131.28z"/>
	</g>
	<g>
		<path style="fill:#420904;" d="M164.32,246.955c0,0,0.939-1.059,2.769-2.724c0.931-0.805,2.033-1.841,3.399-2.879
			c0.677-0.532,1.397-1.099,2.157-1.696c0.782-0.565,1.604-1.16,2.462-1.78c1.725-1.232,3.663-2.457,5.722-3.748
			c2.097-1.213,4.287-2.56,6.659-3.735c1.173-0.615,2.377-1.221,3.598-1.83c1.237-0.571,2.493-1.145,3.767-1.703
			c2.521-1.187,5.188-2.132,7.823-3.158c1.317-0.515,2.667-0.938,4.006-1.371c1.337-0.442,2.681-0.844,4.008-1.26
			c1.318-0.445,2.674-0.729,3.992-1.074c1.323-0.325,2.63-0.646,3.916-0.962c2.576-0.608,5.116-0.983,7.499-1.412
			c2.38-0.45,4.677-0.622,6.778-0.843c2.109-0.18,4.026-0.405,5.751-0.408c1.717-0.056,3.218-0.042,4.449-0.044
			c1.23-0.011,2.2,0.035,2.858,0.043c0.659,0.025,1.01,0.038,1.01,0.038s-0.338,0.106-0.971,0.305
			c-0.635,0.182-1.561,0.484-2.743,0.798c-1.182,0.324-2.61,0.732-4.253,1.129c-0.823,0.19-1.689,0.443-2.598,0.73
			c-0.911,0.263-1.868,0.54-2.867,0.828c-1.995,0.577-4.173,1.087-6.426,1.832c-2.259,0.714-4.665,1.35-7.113,2.144
			c-2.444,0.794-4.97,1.614-7.537,2.447c-1.273,0.446-2.549,0.912-3.843,1.341c-1.292,0.434-2.592,0.864-3.863,1.373
			c-2.561,0.963-5.15,1.858-7.641,2.887c-1.249,0.505-2.498,0.986-3.734,1.457c-1.219,0.511-2.424,1.017-3.609,1.513
			c-2.394,0.949-4.643,2.006-6.828,2.919c-1.088,0.465-2.118,0.973-3.14,1.419c-1.021,0.45-2.006,0.891-2.937,1.34
			c-1.877,0.876-3.614,1.664-5.131,2.41c-1.525,0.744-2.854,1.393-3.949,1.927C165.571,246.32,164.32,246.955,164.32,246.955z"/>
	</g>
	<g>
		<path style="fill:#420904;" d="M131.27,230.43c0,0,1.592-1.584,4.617-4.099c1.536-1.218,3.36-2.776,5.589-4.361
			c1.106-0.809,2.283-1.67,3.524-2.577c1.272-0.863,2.609-1.77,4.004-2.716c1.389-0.963,2.887-1.877,4.432-2.837
			c1.548-0.953,3.145-1.952,4.814-2.928c3.38-1.871,6.894-3.966,10.695-5.8c1.89-0.942,3.811-1.9,5.755-2.87
			c1.984-0.886,3.992-1.783,6.016-2.687c4.024-1.874,8.266-3.4,12.46-5.043c2.094-0.834,4.237-1.529,6.368-2.23
			c2.133-0.694,4.258-1.386,6.366-2.072c2.094-0.73,4.245-1.217,6.337-1.8c2.1-0.555,4.174-1.103,6.214-1.642
			c2.032-0.565,4.076-0.945,6.064-1.357c1.99-0.4,3.937-0.792,5.832-1.173c3.774-0.824,7.419-1.217,10.754-1.687
			c1.67-0.214,3.271-0.418,4.793-0.613c0.761-0.09,1.503-0.178,2.224-0.263c0.723-0.072,1.431-0.103,2.113-0.154
			c2.73-0.2,5.114-0.312,7.073-0.416c1.957-0.114,3.499-0.149,4.546-0.197c1.049-0.031,1.608-0.047,1.608-0.047
			s-0.545,0.136-1.568,0.39c-1.024,0.238-2.52,0.62-4.429,1.037c-1.908,0.427-4.218,0.961-6.873,1.501
			c-0.662,0.144-1.349,0.271-2.049,0.441c-0.698,0.183-1.415,0.372-2.152,0.565c-1.473,0.373-3.022,0.764-4.638,1.173
			c-3.227,0.826-6.751,1.556-10.397,2.675c-1.832,0.512-3.714,1.038-5.637,1.576c-1.917,0.558-3.905,1.007-5.868,1.685
			c-3.943,1.285-8.058,2.462-12.176,3.851c-2.053,0.713-4.123,1.431-6.2,2.152c-2.084,0.702-4.176,1.404-6.224,2.232
			c-4.121,1.58-8.285,3.055-12.279,4.771c-2.013,0.821-4.01,1.635-5.983,2.44c-1.949,0.863-3.874,1.715-5.767,2.553
			c-3.823,1.609-7.398,3.414-10.867,4.985c-1.722,0.809-3.358,1.67-4.972,2.449c-1.613,0.782-3.169,1.546-4.634,2.328
			c-1.48,0.763-2.898,1.493-4.247,2.188c-1.338,0.719-2.606,1.402-3.798,2.043c-1.202,0.631-2.299,1.264-3.324,1.836
			c-1.026,0.574-1.969,1.101-2.82,1.577c-1.673,0.998-3.028,1.735-3.913,2.292C131.75,230.14,131.27,230.43,131.27,230.43z"/>
	</g>
	<g>
		<path style="fill:#420904;" d="M206.133,161.09c0,0,0.706-0.878,2.11-2.25c0.715-0.663,1.563-1.516,2.614-2.378
			c1.034-0.893,2.241-1.844,3.591-2.842c1.344-1.007,2.858-2.008,4.47-3.058c1.643-0.988,3.362-2.08,5.229-3.029
			c0.922-0.499,1.871-0.986,2.833-1.476c0.975-0.461,1.965-0.922,2.972-1.368c1.99-0.952,4.099-1.702,6.182-2.517
			c2.094-0.787,4.245-1.415,6.347-2.064c1.044-0.348,2.119-0.566,3.165-0.828c1.049-0.253,2.082-0.509,3.106-0.732
			c2.043-0.459,4.059-0.727,5.949-1.035c1.889-0.323,3.711-0.423,5.378-0.559c1.674-0.097,3.192-0.25,4.56-0.211
			c1.363,0.007,2.553,0.058,3.528,0.092c0.974,0.023,1.743,0.096,2.264,0.123c0.522,0.043,0.8,0.066,0.8,0.066
			s-0.265,0.096-0.761,0.277c-0.498,0.164-1.222,0.438-2.149,0.718c-0.926,0.29-2.044,0.653-3.328,1.016
			c-1.288,0.343-2.712,0.875-4.277,1.338c-1.56,0.493-3.264,0.93-5.026,1.548c-1.767,0.593-3.648,1.121-5.564,1.767
			c-1.908,0.671-3.898,1.286-5.899,1.972c-1.979,0.751-4.04,1.361-6.039,2.147c-2.01,0.752-4.042,1.452-6.001,2.246
			c-0.982,0.392-1.964,0.761-2.939,1.122c-0.958,0.397-1.902,0.793-2.844,1.159c-1.888,0.724-3.667,1.526-5.397,2.213
			c-1.7,0.741-3.338,1.406-4.826,2.069c-1.498,0.648-2.875,1.246-4.091,1.795c-1.226,0.544-2.295,1.018-3.176,1.408
			c-0.865,0.42-1.584,0.704-2.048,0.936C206.388,160.974,206.133,161.09,206.133,161.09z"/>
	</g>
</g>
<g>
</g>
<g>
</g>
<g>
</g>
<g>
</g>
<g>
</g>
<g>
</g>
<g>
</g>
<g>
</g>
<g>
</g>
<g>
</g>
<g>
</g>
<g>
</g>
<g>
</g>
<g>
</g>
<g>
</g>
</svg>
